<svg
	xmlns="http://www.w3.org/2000/svg"
	width="48"
	height="48"
	viewbox="0 0 48 48"
>
		<path
			stroke-miterlimit="10"
			stroke-width="2"
			stroke="currentColor"
			fill="none"
			d="M42.9 46c0 .6-.4 1-1 1H6.1c-.5 0-1-.4-1-1V2c0-.5.5-1 1-1h35.8c.6 0 1 .5 1 1v44zM5.4 13h37.2"
		/>
		<path
			stroke-miterlimit="10"
			stroke-width="1.5"
			stroke="currentColor"
			fill="none"
			d="M30.2 8.4c0 .6-.4 1-1 1H10c-.5 0-1-.4-1-1V5.6c0-.5.5-1 1-1h19.2c.6 0 1 .5 1 1v2.8zM25.6 9.7v-5M19.6 9.7v-5M13.6 9.7v-5"
		/>
		<circle
			stroke-miterlimit="10"
			stroke-width="1.5"
			stroke="currentColor"
			fill="none"
			r="2.3"
			cy="7.1"
			cx="36.7"
		/>
</svg>