<svg
	xmlns="http://www.w3.org/2000/svg"
	width="48"
	height="48"
	viewbox="0 0 48 48"
>
	<path
		stroke-miterlimit="10"
		stroke-width="2"
		stroke="currentColor"
		fill="none"
		d="M46.1 46c0 .6-.4 1-1 1H2.9c-.5 0-1-.4-1-1V2c0-.5.5-1 1-1h42.2c.6 0 1 .5 1 1v44z"
	/>
	<path
		stroke-miterlimit="10"
		stroke-width="2"
		stroke="currentColor"
		fill="none"
		d="M40.9 38.2c0 .6-.4 1-1 1H8.1c-.5 0-1-.4-1-1V21c0-.5.5-1 1-1H40c.6 0 1 .5 1 1v17.2zM1.8 10.8h44.4"
	/>
	<path
		stroke-miterlimit="10"
		stroke-linejoin="round"
		stroke-linecap="round"
		stroke-width="1.5"
		stroke="currentColor"
		fill="none"
		d="M6 15.4h36"
	/>
	<circle
		stroke-miterlimit="10"
		stroke-width="1.5"
		stroke="currentColor"
		fill="none"
		r="1.6"
		cy="6.1"
		cx="7.8"
	/>
	<circle
		stroke-miterlimit="10"
		stroke-width="1.5"
		stroke="currentColor"
		fill="none"
		r="1.6"
		cy="6.1"
		cx="18.6"
	/>
	<circle
		stroke-miterlimit="10"
		stroke-width="1.5"
		stroke="currentColor"
		fill="none"
		r="1.6"
		cy="6.1"
		cx="29.4"
	/>
	<circle
		stroke-miterlimit="10"
		stroke-width="1.5"
		stroke="currentColor"
		fill="none"
		r="1.6"
		cy="6.1"
		cx="40.2"
	/>
</svg>