<svg
	xmlns="http://www.w3.org/2000/svg"
	width="48"
	height="48"
	viewBox="0 0 48 48"
>
	<path
		stroke-miterlimit="10"
		stroke="currentColor"
		fill="none"
		d="M12.87 18.43c2.61 0 4.74-2.12 4.74-4.74 0-2.61-2.12-4.73-4.74-4.73s-4.73 2.12-4.73 4.73c0 2.61 2.12 4.74 4.73 4.74zm0-9.15c2.43 0 4.42 1.98 4.42 4.42a4.42 4.42 0 0 1-4.41 4.42c-2.43 0-4.41-1.98-4.41-4.41a4.407 4.407 0 0 1 4.4-4.43z"
	/>
	<path
		stroke-miterlimit="10"
		stroke="#FFF"
		fill="none"
		d="M12.87 19.07c2.97 0 5.38-2.41 5.38-5.38 0-2.97-2.41-5.38-5.38-5.38-2.97 0-5.38 2.41-5.38 5.38.01 2.97 2.42 5.38 5.38 5.38zm0-10.44c2.79 0 5.06 2.27 5.06 5.06s-2.27 5.06-5.06 5.06c-2.79 0-5.06-2.27-5.06-5.06s2.27-5.06 5.06-5.06z"
	/>
	<path
		stroke-miterlimit="10"
		stroke="#FFF"
		fill="none"
		d="M12.87 17.78c2.26 0 4.09-1.83 4.09-4.09S15.13 9.6 12.87 9.6s-4.09 1.83-4.09 4.09 1.84 4.09 4.09 4.09zm0-7.86c2.08 0 3.77 1.69 3.77 3.77s-1.69 3.77-3.77 3.77-3.77-1.69-3.77-3.77 1.7-3.77 3.77-3.77z"
	/>
	<path
		stroke-miterlimit="10"
		stroke="currentColor"
		fill="none"
		d="M12.87 19.71c3.32 0 6.02-2.7 6.02-6.02s-2.7-6.02-6.02-6.02c-3.32 0-6.02 2.7-6.02 6.02 0 3.32 2.7 6.02 6.02 6.02zm0-11.72a5.704 5.704 0 0 1 0 11.41c-3.14 0-5.7-2.56-5.7-5.71 0-3.14 2.56-5.7 5.7-5.7zM12.87 23.84c-5.37 0-9.74 4.37-9.74 9.74 0 5.38 4.37 9.75 9.74 9.75s9.75-4.37 9.75-9.75c0-5.36-4.37-9.74-9.75-9.74zM35.1 27.83c-3.81 0-6.9 3.1-6.9 6.9 0 3.81 3.1 6.9 6.9 6.9s6.9-3.1 6.9-6.9c0-3.81-3.09-6.9-6.9-6.9zM35.1 3.94c-5.37 0-9.75 4.37-9.75 9.75s4.37 9.74 9.75 9.74 9.74-4.37 9.74-9.74-4.37-9.75-9.74-9.75z"
	/>
	<path
		stroke-miterlimit="10"
		stroke="currentColor"
		fill="none"
		d="M47.01.5H.99A.49.49 0 0 0 .5.99v46.02c0 .27.22.49.49.49h46.02c.27 0 .49-.22.49-.49V.99a.49.49 0 0 0-.49-.49zM12.87 6.22c4.12 0 7.47 3.35 7.47 7.47 0 4.12-3.35 7.47-7.47 7.47-4.12 0-7.47-3.35-7.47-7.47 0-4.12 3.35-7.47 7.47-7.47zm0 37.69c-5.69 0-10.31-4.63-10.31-10.32s4.63-10.32 10.32-10.32S23.2 27.9 23.2 33.59s-4.64 10.32-10.33 10.32zM35.1 42.2c-4.12 0-7.47-3.35-7.47-7.47 0-4.12 3.35-7.47 7.47-7.47s7.47 3.35 7.47 7.47c0 4.12-3.35 7.47-7.47 7.47zm0-18.19c-5.69 0-10.32-4.63-10.32-10.32S29.41 3.37 35.1 3.37 45.42 8 45.42 13.69c-.01 5.69-4.63 10.32-10.32 10.32z"
	/>
	<path
		stroke-miterlimit="10"
		stroke="currentColor"
		fill="none"
		d="M12.87 17.14c1.9 0 3.45-1.54 3.45-3.44s-1.54-3.44-3.44-3.44-3.45 1.55-3.45 3.45 1.54 3.43 3.44 3.43zm0-6.57c1.72 0 3.13 1.4 3.13 3.13 0 1.72-1.4 3.13-3.12 3.13s-3.12-1.4-3.12-3.12a3.114 3.114 0 0 1 3.11-3.14z"
	/>
	<path
		stroke-miterlimit="10"
		stroke="#FFF"
		fill="none"
		d="M12.87 20.59c3.81 0 6.9-3.1 6.9-6.9 0-3.81-3.1-6.9-6.9-6.9-3.81 0-6.9 3.1-6.9 6.9 0 3.81 3.1 6.9 6.9 6.9zm0-13.25c3.51 0 6.35 2.84 6.35 6.35s-2.84 6.35-6.35 6.35-6.35-2.84-6.35-6.35 2.85-6.35 6.35-6.35z"
	/>
	<path
		stroke-miterlimit="10"
		stroke="#FFF"
		fill="none"
		d="M12.87 16.49c1.54 0 2.8-1.26 2.8-2.8s-1.26-2.8-2.8-2.8c-1.54 0-2.8 1.26-2.8 2.8s1.26 2.8 2.8 2.8zm0-5.28a2.48 2.48 0 1 1 0 4.96 2.48 2.48 0 0 1 0-4.96z"
	/>
	<path
		stroke-miterlimit="10"
		stroke="currentColor"
		fill="none"
		d="M12.87 15.85c1.19 0 2.16-.97 2.16-2.16 0-1.19-.97-2.15-2.16-2.15s-2.16.97-2.16 2.15c.01 1.19.98 2.16 2.16 2.16z"
	/>
</svg>