<?xml version="1.0" encoding="UTF-8" standalone="no"?>
<!-- Created with Inkscape (http://www.inkscape.org/) -->

<svg
   xmlns:dc="http://purl.org/dc/elements/1.1/"
   xmlns:cc="http://creativecommons.org/ns#"
   xmlns:rdf="http://www.w3.org/1999/02/22-rdf-syntax-ns#"
   xmlns:svg="http://www.w3.org/2000/svg"
   xmlns="http://www.w3.org/2000/svg"
   xmlns:sodipodi="http://sodipodi.sourceforge.net/DTD/sodipodi-0.dtd"
   xmlns:inkscape="http://www.inkscape.org/namespaces/inkscape"
   id="svg2985"
   version="1.1"
   inkscape:version="0.92.2 (5c3e80d, 2017-08-06)"
   width="1000"
   height="438.29001"
   xml:space="preserve"
   sodipodi:docname="LG (2014) (Print).svg"><metadata
     id="metadata2991"><rdf:RDF><cc:Work
         rdf:about=""><dc:format>image/svg+xml</dc:format><dc:type
           rdf:resource="http://purl.org/dc/dcmitype/StillImage" /><dc:title></dc:title></cc:Work></rdf:RDF></metadata><defs
     id="defs2989"><clipPath
       clipPathUnits="userSpaceOnUse"
       id="clipPath3001"><path
         d="M 0,0 H 189.405 V 792 H 0 Z"
         id="path3003"
         inkscape:connector-curvature="0" /></clipPath><clipPath
       clipPathUnits="userSpaceOnUse"
       id="clipPath3015"><path
         d="M 189.6,0.905 H 612 V 792 H 189.6 Z"
         id="path3017"
         inkscape:connector-curvature="0" /></clipPath><clipPath
       clipPathUnits="userSpaceOnUse"
       id="clipPath3029"><path
         d="M 0,0 H 612 V 792 H 0 Z"
         id="path3031"
         inkscape:connector-curvature="0" /></clipPath><clipPath
       clipPathUnits="userSpaceOnUse"
       id="clipPath3037"><path
         d="M 180.405,109.4 H 621 V -1.00003 H 180.405 Z"
         id="path3039"
         inkscape:connector-curvature="0" /></clipPath><clipPath
       clipPathUnits="userSpaceOnUse"
       id="clipPath3053"><path
         d="M 314.4,12.231 H 497.401 V 87.4 H 314.4 Z"
         id="path3055"
         inkscape:connector-curvature="0" /></clipPath><clipPath
       clipPathUnits="userSpaceOnUse"
       id="clipPath3197"><path
         d="M 0,0 H 612 V 792 H 0 Z"
         id="path3199"
         inkscape:connector-curvature="0" /></clipPath><clipPath
       clipPathUnits="userSpaceOnUse"
       id="clipPath3205"><path
         d="M 179.7,799 H 621.9 V 684.2 H 179.7 Z"
         id="path3207"
         inkscape:connector-curvature="0" /></clipPath></defs><sodipodi:namedview
     pagecolor="#ffffff"
     bordercolor="#666666"
     borderopacity="1"
     objecttolerance="10"
     gridtolerance="10"
     guidetolerance="10"
     inkscape:pageopacity="0"
     inkscape:pageshadow="2"
     inkscape:window-width="1366"
     inkscape:window-height="705"
     id="namedview2987"
     showgrid="false"
     fit-margin-left="0.5"
     fit-margin-bottom="0.5"
     fit-margin-top="0.5"
     fit-margin-right="0.5"
     inkscape:zoom="0.55573058"
     inkscape:cx="326.99484"
     inkscape:cy="127.93935"
     inkscape:window-x="-8"
     inkscape:window-y="-8"
     inkscape:window-maximized="1"
     inkscape:current-layer="g2993" /><g
     id="g2993"
     inkscape:groupmode="layer"
     inkscape:label="Travel_Guide_Michoacan"
     transform="matrix(1.25,0,0,-1.25,76.11687,526.59398)"><path
       style="fill:#000000;fill-opacity:1;fill-rule:evenodd;stroke:none;stroke-width:1.25125122"
       d="M 219.36328 0 C 98.560838 0 7.5791225e-014 98.124731 0 219.36328 C 0 340.16574 98.560837 438.28906 219.36328 438.28906 C 340.60183 438.28906 438.72656 340.16574 438.72656 219.36328 C 438.72656 98.124731 340.60183 0 219.36328 0 z M 219.79883 35.324219 C 221.54328 35.324219 225.90537 35.759766 228.08594 35.759766 L 228.08594 52.769531 L 219.79883 52.769531 C 175.31562 52.769531 133.44874 69.777826 102.04883 101.17773 C 70.212801 132.57765 52.769531 174.87869 52.769531 218.92578 C 52.769531 263.84513 70.212801 305.27587 102.04883 336.67578 C 133.44874 368.07571 175.31562 385.52148 219.79883 385.52148 C 307.45693 385.52148 379.85205 317.05151 385.52148 230.26562 L 385.52148 227.64844 L 272.13281 227.64844 L 272.13281 211.07617 L 395.98828 211.07617 L 403.40234 211.07617 L 403.40234 218.92578 C 403.40234 268.20622 384.21301 314.43403 349.32422 348.88672 C 314.87153 383.33941 268.64315 402.5293 219.79883 402.5293 C 170.51842 402.5293 124.29114 383.33941 89.402344 348.88672 C 54.949661 314.43403 35.761719 268.20622 35.761719 218.92578 C 35.761719 117.74829 118.18523 35.324219 219.79883 35.324219 z M 149.58594 122.98242 C 163.97756 122.98242 175.75195 134.7568 175.75195 149.14844 C 175.75195 163.54008 163.97756 175.31641 149.58594 175.31641 C 134.7582 175.31641 122.98242 163.54007 122.98242 149.14844 C 122.98242 134.7568 134.7582 122.98242 149.58594 122.98242 z M 210.64062 122.98242 L 228.52148 122.98242 L 228.52148 297.86328 L 272.13281 297.86328 L 272.13281 315.30664 L 210.64062 315.30664 L 210.64062 122.98242 z "
       transform="matrix(0.8,0,0,-0.8,-60.893496,421.27518)"
       id="path3421" /><path
       inkscape:connector-curvature="0"
       d="m 647.34897,221.0139 h 43.26211 v -39.77323 c -8.02442,-3.13998 -23.72438,-6.27998 -38.02878,-6.27998 -47.79766,0 -63.49761,24.07326 -63.49761,73.26647 0,46.75098 15.00219,73.96424 62.45095,73.96424 26.51548,0 41.51765,-8.02443 54.07763,-24.07326 l 32.79546,30.35324 c -20.2355,28.6088 -55.12431,37.33102 -87.91976,37.33102 -73.96424,0 -112.6908,-40.47103 -112.6908,-117.22637 0,-76.40645 35.23767,-117.92412 112.34191,-117.92412 35.2377,0 70.12647,9.07108 88.96642,22.32882 v 110.5975 H 647.34897 Z M 422.31626,362.3135 H 369.63421 V 133.7919 h 161.88398 v 44.65766 H 422.31626 Z"
       style="fill:#000000;fill-opacity:1;fill-rule:evenodd;stroke:none;stroke-width:1.001001"
       id="path3433" /></g></svg>