<svg
	xmlns="http://www.w3.org/2000/svg"
	width="75"
	height="75"
	viewBox="0 0 75 75"
>
	<g stroke="currentColor" stroke-miterlimit="10" fill="none">
		<path
			stroke-width="3"
			d="M57.47 72.006c0 .55-.45 1-1 1H18.53c-.55 0-1-.45-1-1V9.653c0-.55.45-1 1-1h37.94c.55 0 1 .45 1 1v62.353z"
		/>
		<path d="M36.2 7.653c0 .55-.452 1-1 1h-.142c-.55 0-1-.45-1-1v-4.66c0-.55.45-1 1-1h.14c.55 0 1 .45 1 1v4.66zm4.743 0c0 .55-.45 1-1 1h-.14c-.55 0-1-.45-1-1v-4.66c0-.55.45-1 1-1h.14c.55 0 1 .45 1 1v4.66z" />
		<circle cx="37.5" cy="62.806" r="3.674" />
	</g>
</svg>