<svg
	xmlns="http://www.w3.org/2000/svg"
	width="48"
	height="48"
	viewBox="0 0 48 48"
>
	<path
		stroke-miterlimit="10"
		stroke-width="2"
		stroke="currentColor"
		fill="none"
		d="M1 1.23h46v6.03H1zM1 11.54h46v35.24H1z"
	/>
	<path 
		stroke="#00F" 
		d="M12.26 27.35h5.27l-3.77-3.77 1.64-1.65 5.42 5.42h2.42V25l-5.42-5.41 1.65-1.65 3.77 3.78v-4.99h2.32v4.99l3.77-3.78 1.65 1.65L25.56 25v2.35h2.27l5.41-5.42 1.65 1.65-3.77 3.77h4.62v2.32h-4.62l3.77 3.77-1.65 1.64-5.41-5.41h-2.27v2.35l5.42 5.41-1.65 1.64-3.77-3.77v5.33h-2.32V35.3l-3.77 3.77-1.65-1.64 5.42-5.41v-2.35h-2.42l-5.42 5.41-1.64-1.64 3.77-3.77h-5.27z" />
</svg>