<svg
	xmlns="http://www.w3.org/2000/svg"
	width="48"
	height="48"
	viewbox="0 0 48 48"
>
		<path
			stroke-miterlimit="10"
			stroke-width="2"
			stroke="currentColor"
			fill="none"
			d="M45.5 46c0 .6-.4 1-1 1h-41c-.5 0-1-.4-1-1V2c0-.5.5-1 1-1h40.9c.6 0 1 .5 1 1v44z"
		/>
		<path
			stroke-miterlimit="10"
			stroke-width="2"
			stroke="currentColor"
			fill="none"
			d="M38.1 36.2c0 .6-.4 1-1 1H10.9c-.5 0-1-.4-1-1v-19c0-.5.5-1 1-1h26.2c.6 0 1 .5 1 1v19z"
		/>
		<path
			stroke-miterlimit="10"
			stroke-width="2"
			stroke="currentColor"
			fill="none"
			d="M12 24c.6 0 1 .5 1 1v3.9c0 .6-.4 1-1 1h-1c-.5 0-1-.4-1-1V25c0-.5.5-1 1-1h1zM2.5 9.9h43"
		/>
		<path d="M32.3 3.7h10.9v3.7H32.3z" />
		<circle r="1.4" cy="5.5" cx="10.5" />
		<circle r="1.4" cy="5.5" cx="6.2" />
</svg>