<?xml version="1.0" encoding="UTF-8" standalone="no"?>
<!-- Generator: Adobe Illustrator 20.0.0, SVG Export Plug-In . SVG Version: 6.00 Build 0)  -->

<svg
   xmlns:dc="http://purl.org/dc/elements/1.1/"
   xmlns:cc="http://creativecommons.org/ns#"
   xmlns:rdf="http://www.w3.org/1999/02/22-rdf-syntax-ns#"
   xmlns:svg="http://www.w3.org/2000/svg"
   xmlns="http://www.w3.org/2000/svg"
   xmlns:sodipodi="http://sodipodi.sourceforge.net/DTD/sodipodi-0.dtd"
   xmlns:inkscape="http://www.inkscape.org/namespaces/inkscape"
   version="1.1"
   id="svg2"
   x="0px"
   y="0px"
   width="1000"
   height="1000"
   viewBox="0 0 1000 1000"
   xml:space="preserve"
   inkscape:version="0.92.2 (5c3e80d, 2017-08-06)"
   sodipodi:docname="General Electric (Print).svg"><metadata
     id="metadata13"><rdf:RDF><cc:Work
         rdf:about=""><dc:format>image/svg+xml</dc:format><dc:type
           rdf:resource="http://purl.org/dc/dcmitype/StillImage" /><dc:title /></cc:Work></rdf:RDF></metadata><defs
     id="defs11" /><sodipodi:namedview
     pagecolor="#ffffff"
     bordercolor="#666666"
     borderopacity="1"
     objecttolerance="10"
     gridtolerance="10"
     guidetolerance="10"
     inkscape:pageopacity="0"
     inkscape:pageshadow="2"
     inkscape:window-width="1366"
     inkscape:window-height="705"
     id="namedview9"
     showgrid="false"
     inkscape:zoom="0.5"
     inkscape:cx="381.48004"
     inkscape:cy="462.38658"
     inkscape:window-x="-8"
     inkscape:window-y="-8"
     inkscape:window-maximized="1"
     inkscape:current-layer="svg2" /><style
     type="text/css"
     id="style3">
	.st0{fill:#FFFFFF;}
	.st1{fill:#3B73B9;}
</style><path
     id="path16"
     inkscape:connector-curvature="0"
     class="st1"
     d="m 612.16326,369.81632 c 0,-56.85714 38.48979,-112 59.48979,-101.61224 23.93878,12 -17.93877,65.55102 -59.48979,101.61224 m -261.73469,20.71429 c 0,-45.71429 45.10204,-132.57143 72.65306,-123.38775 C 455.65305,278 396.10204,365.61224 350.42857,390.53061 m -45.7347,326.93877 c -20.73469,0.93878 -34.61224,-12.32653 -34.61224,-34.46939 0,-59.48979 82.55102,-116.32653 144.89796,-146.83673 -11.06123,83.06122 -39.12245,178.10204 -110.28572,181.30612 M 685.55101,523.61224 c -47.08163,0 -83.06122,34.63265 -83.06122,76.16326 0,34.63266 20.81632,62.32653 48.42857,62.32653 9.77551,0 19.44898,-5.57142 19.44898,-17.93877 0,-18.10204 -23.87755,-22.44898 -22.08163,-49.36735 1.20408,-17.7551 17.93877,-29.63265 34.55102,-29.63265 33.20408,0 48.73469,32.18367 48.73469,65.38775 -1.34694,51.28572 -39.10204,86.89796 -83.34694,86.89796 -58.20408,0 -95.59183,-55.34694 -95.59183,-114.91836 0,-88.69388 58.20408,-123.30612 88.69387,-131.57143 0.28572,0 79.63265,14.10204 77.16327,-20.87755 -1.14286,-15.38776 -24.02041,-21.30612 -40.55102,-21.93878 -18.38776,-0.71428 -36.95919,5.89796 -36.95919,5.89796 -9.63265,-4.89796 -16.32653,-14.46939 -20.46938,-25.48979 56.79591,-42.97959 96.95918,-84.4898 96.95918,-131.59184 0,-24.91837 -16.65306,-47.08163 -48.51021,-47.08163 -56.79591,0 -99.73469,72.02041 -99.73469,137.12245 0,11.04081 0,22.16326 2.85714,31.83673 -36.04081,26.28571 -62.83673,42.67347 -111.2653,71.7551 0,-6.06122 1.26531,-21.71428 5.34694,-41.95918 16.59184,-18.02041 39.38775,-45.02041 39.38775,-65.81633 0,-9.67347 -5.48979,-18.0204 -16.67347,-18.0204 -27.65306,0 -48.38775,41.59183 -53.93877,70.67346 -12.46939,15.30613 -37.40816,34.69388 -58.22449,34.69388 -16.59184,0 -22.16326,-15.2449 -23.57143,-20.81633 52.65306,-18.0204 117.7551,-90.04081 117.7551,-155.14285 0,-13.81633 -5.55102,-44.32653 -47.08163,-44.32653 -62.32653,0 -114.89796,92.83673 -114.89796,164.77551 -22.22449,0 -30.48979,-23.51021 -30.48979,-41.53061 0,-18.04082 6.91836,-35.9796 6.91836,-41.55102 0,-5.55102 -2.77551,-12.44898 -11.12244,-12.44898 -20.7347,0 -33.20409,27.69387 -33.20409,59.55102 1.42858,44.32653 30.4898,72.10204 69.2449,74.81632 5.55102,26.34694 29.06123,51.28572 58.12245,51.28572 18.04082,0 40.18367,-5.55102 55.42857,-19.36735 -1.34694,9.67347 -2.69388,18.02041 -4.12245,26.28571 -60.97959,31.91837 -105.30612,54.06123 -145.46938,90.06123 -31.77551,29.12244 -49.79592,67.87755 -49.79592,98.30612 0,41.61224 26.28571,80.36734 80.28571,80.36734 63.67347,0 112.20408,-51.22449 135.77551,-121.89795 11.04082,-33.20409 15.46939,-81.57143 18.30612,-125.95919 63.63265,-36.06122 93.83674,-56.83673 127.10204,-80.42857 4.14286,6.91837 8.32653,12.44898 13.81633,16.59184 -29.06123,15.2449 -98.30612,58.20408 -98.30612,159.28571 0,72.02041 48.42857,152.38775 144.06122,152.38775 78.93877,0 132.93877,-65.12244 132.93877,-127.46938 -0.0204,-56.73469 -31.87755,-109.32653 -92.85714,-109.32653 m 238.14286,118.97959 c -0.20409,0.42857 -0.9796,1 -2.55103,0.4898 -1.22449,-0.42858 -1.48979,-1 -1.48979,-1.79592 0.0612,-0.77551 16.73469,-50.08163 16.59184,-106.57143 -0.14286,-61.06122 -24.91837,-98.46939 -56.69388,-98.46939 -19.44898,0 -33.28572,13.89796 -33.28572,34.71429 0,37.38775 45.67347,40.18367 45.67347,121.87755 0,33.20408 -6.91836,65.06122 -17.93877,99.67347 -51.30612,173.10204 -214.73469,253.46938 -373.93877,253.46938 -73.44898,0 -125.61225,-15.10204 -141.12245,-22.06122 -0.63265,-0.36735 -1.22449,-1.57143 -0.71429,-2.79592 0.34694,-0.91837 1.42858,-1.63265 2.06123,-1.34694 6.28571,2.42857 51.08163,16.53061 106.5102,16.53061 60.91837,0 96.95918,-24.91837 96.95918,-55.42857 0,-19.36735 -15.24489,-34.61224 -34.61224,-34.61224 -37.40816,0 -40.2449,47.08163 -120.55102,47.08163 -34.61224,0 -65.10204,-6.91837 -101.08163,-18.04082 C 135.71428,822.69387 53.938774,660.69387 53.999999,500.04081 54.061223,421.7551 76.020407,359.40816 76.367345,358.83673 c 0.285715,-0.40816 1.265307,-0.85714 2.469388,-0.40816 1.22449,0.40816 1.489796,1.40816 1.428572,1.77551 -1.979592,6.48979 -16.530612,51.16326 -16.530612,106.59183 0,60.97959 24.918367,96.95919 56.775507,96.95919 17.95919,0 33.20408,-13.81633 33.20408,-33.20408 0,-37.44898 -45.73469,-41.59184 -45.73469,-121.93878 0,-34.63265 6.97959,-65.12245 18.02041,-101.10204 52.65306,-171.7551 214.73469,-252.244893 374.0204,-253.489791 74.02041,-0.571429 138.77551,21.591836 141.26531,23.571428 0.42857,0.367347 0.85714,1.306123 0.42857,2.428572 -0.59184,1.346938 -1.44898,1.489796 -1.85715,1.408163 -0.77551,-0.06123 -42.89795,-17.673469 -106.65306,-17.673469 -59.55102,-0.06123 -96.95918,24.87755 -96.95918,56.775507 0,17.95919 13.89796,33.20408 34.61225,33.20408 37.40816,0 40.18367,-45.67347 120.55102,-45.67347 34.53061,0 65.04081,6.83674 101.0204,17.95919 173.18367,52.63265 251.97959,216.06122 253.46939,373.99999 0.81632,80.87755 -21.9796,142.06123 -22.20408,142.57143 M 500.04081,23.57143 c -263.16326,0 -476.448974,213.22449 -476.448974,476.44897 0,263.16327 213.285714,476.38775 476.448974,476.38775 263.10204,0 476.38775,-213.22448 476.38775,-476.38775 0,-261.79591 -213.28571,-476.44897 -476.38775,-476.44897 m 0,976.42856 C 224.40816,999.99999 -5e-7,777.0204 -5e-7,500.04081 -5e-7,224.32653 224.40816,1.5e-6 500.04081,1.5e-6 c 275.55102,0 499.95918,224.3265285 499.95918,500.0408085 0,276.97959 -224.40816,499.95918 -499.95918,499.95918"
     style="fill:#000000;fill-opacity:1;stroke-width:0.20408162" /><style
     id="style3-3"
     type="text/css">
	.st0{fill:#FFFFFF;}
	.st1{fill:#3B73B9;}
</style></svg>