<svg
	xmlns="http://www.w3.org/2000/svg"
	width="48"
	height="48"
	viewbox="0 0 48 48"
>
	<path
		stroke-miterlimit="10"
		stroke="#FFF" 
		d="M4.76 3.37v4.21h10.88V3.37H4.76zM36.55 5.9c0 .46.38.84.84.84.46 0 .84-.38.84-.84 0-.47-.38-.84-.84-.84a.832.832 0 0 0-.84.84zm4.18 0c0 .46.37.84.84.84.46 0 .84-.38.84-.84 0-.47-.37-.84-.84-.84a.826.826 0 0 0-.84.84zM13.4 26.95c0 6.05 5.1 11.45 11.44 11.51 6.01.05 11.31-5.14 11.44-11.51.14-6.26-5.43-11.51-11.44-11.51S13.41 20.61 13.4 26.95zm2.08 0c0-5.2 4.18-9.41 9.35-9.41 4.3 0 7.92 2.91 9.01 6.89h-1.48a.83.83 0 0 0-.83.84v3.37c0 .47.38.84.84.84h1.49c-1.1 3.98-4.72 6.89-9.01 6.89-5.18-.01-9.37-4.22-9.37-9.42zm17.73-1.68c.46 0 .84.37.84.84v1.68c0 .46-.38.84-.83.84-.46 0-.84-.38-.84-.84v-1.68c-.02-.47.36-.84.83-.84zM1.41 0v48h45.18V0H1.41zm2.24 2.25h40.7V8.7H3.65V2.25zm40.7 8.42v35.08H3.65V10.67h40.7z" 
	/>
</svg>